<svg width="23" height="22" viewBox="0 0 23 22" fill="none" xmlns="http://www.w3.org/2000/svg">
<path d="M1.30002 11C1.30002 7.229 1.30002 5.343 2.47202 4.172C3.64402 3.001 5.52902 3 9.30002 3H13.3C17.071 3 18.957 3 20.128 4.172C21.299 5.344 21.3 7.229 21.3 11V13C21.3 16.771 21.3 18.657 20.128 19.828C18.956 20.999 17.071 21 13.3 21H9.30002C5.52902 21 3.64302 21 2.47202 19.828C1.30102 18.656 1.30002 16.771 1.30002 13V11Z" stroke="#484554" stroke-width="1.5"/>
<path d="M6.30002 3V1.5M16.3 3V1.5M1.80002 8H20.8" stroke="#484554" stroke-width="1.5" stroke-linecap="round"/>
<path d="M16.8 16C16.8 16.1326 16.7473 16.2598 16.6536 16.3536C16.5598 16.4473 16.4326 16.5 16.3 16.5C16.1674 16.5 16.0402 16.4473 15.9465 16.3536C15.8527 16.2598 15.8 16.1326 15.8 16C15.8 15.8674 15.8527 15.7402 15.9465 15.6464C16.0402 15.5527 16.1674 15.5 16.3 15.5C16.4326 15.5 16.5598 15.5527 16.6536 15.6464C16.7473 15.7402 16.8 15.8674 16.8 16ZM16.8 12C16.8 12.1326 16.7473 12.2598 16.6536 12.3536C16.5598 12.4473 16.4326 12.5 16.3 12.5C16.1674 12.5 16.0402 12.4473 15.9465 12.3536C15.8527 12.2598 15.8 12.1326 15.8 12C15.8 11.8674 15.8527 11.7402 15.9465 11.6464C16.0402 11.5527 16.1674 11.5 16.3 11.5C16.4326 11.5 16.5598 11.5527 16.6536 11.6464C16.7473 11.7402 16.8 11.8674 16.8 12ZM11.8 16C11.8 16.1326 11.7473 16.2598 11.6536 16.3536C11.5598 16.4473 11.4326 16.5 11.3 16.5C11.1674 16.5 11.0402 16.4473 10.9465 16.3536C10.8527 16.2598 10.8 16.1326 10.8 16C10.8 15.8674 10.8527 15.7402 10.9465 15.6464C11.0402 15.5527 11.1674 15.5 11.3 15.5C11.4326 15.5 11.5598 15.5527 11.6536 15.6464C11.7473 15.7402 11.8 15.8674 11.8 16ZM11.8 12C11.8 12.1326 11.7473 12.2598 11.6536 12.3536C11.5598 12.4473 11.4326 12.5 11.3 12.5C11.1674 12.5 11.0402 12.4473 10.9465 12.3536C10.8527 12.2598 10.8 12.1326 10.8 12C10.8 11.8674 10.8527 11.7402 10.9465 11.6464C11.0402 11.5527 11.1674 11.5 11.3 11.5C11.4326 11.5 11.5598 11.5527 11.6536 11.6464C11.7473 11.7402 11.8 11.8674 11.8 12ZM6.80002 16C6.80002 16.1326 6.74734 16.2598 6.65357 16.3536C6.5598 16.4473 6.43263 16.5 6.30002 16.5C6.16741 16.5 6.04023 16.4473 5.94647 16.3536C5.8527 16.2598 5.80002 16.1326 5.80002 16C5.80002 15.8674 5.8527 15.7402 5.94646 15.6464C6.04023 15.5527 6.16741 15.5 6.30002 15.5C6.43263 15.5 6.5598 15.5527 6.65357 15.6464C6.74734 15.7402 6.80002 15.8674 6.80002 16ZM6.80002 12C6.80002 12.1326 6.74734 12.2598 6.65357 12.3536C6.5598 12.4473 6.43263 12.5 6.30002 12.5C6.16741 12.5 6.04023 12.4473 5.94647 12.3536C5.8527 12.2598 5.80002 12.1326 5.80002 12C5.80002 11.8674 5.8527 11.7402 5.94647 11.6464C6.04023 11.5527 6.16741 11.5 6.30002 11.5C6.43263 11.5 6.5598 11.5527 6.65357 11.6464C6.74734 11.7402 6.80002 11.8674 6.80002 12Z" fill="#484554" stroke="#484554"/>
</svg>
