<svg width="2" height="12" viewBox="0 0 2 12" fill="none" xmlns="http://www.w3.org/2000/svg">
<path d="M1.41665 1.83341C1.41665 2.06353 1.2301 2.25008 0.999979 2.25008C0.769861 2.25008 0.583313 2.06353 0.583313 1.83341C0.583313 1.6033 0.769861 1.41675 0.999979 1.41675C1.2301 1.41675 1.41665 1.6033 1.41665 1.83341Z" stroke="#141414"/>
<path d="M1.41665 6.00008C1.41665 6.2302 1.2301 6.41675 0.999979 6.41675C0.769861 6.41675 0.583313 6.2302 0.583313 6.00008C0.583313 5.76996 0.769861 5.58341 0.999979 5.58341C1.2301 5.58341 1.41665 5.76996 1.41665 6.00008Z" stroke="#141414"/>
<path d="M1.41665 10.1667C1.41665 10.3969 1.2301 10.5834 0.999979 10.5834C0.769861 10.5834 0.583313 10.3969 0.583313 10.1667C0.583313 9.93663 0.769861 9.75008 0.999979 9.75008C1.2301 9.75008 1.41665 9.93663 1.41665 10.1667Z" stroke="#141414"/>
</svg>
