<svg width="14" height="14" viewBox="0 0 14 14" fill="none" xmlns="http://www.w3.org/2000/svg">
<path d="M12.1893 5.75004C12.7127 6.39273 13.0274 7.25651 13.0274 8.3584C13.0274 9.38853 12.7524 10.2106 12.2889 10.8384C12.1208 11.0661 12.1562 11.597 12.2906 11.8461C12.6121 12.4424 12.0046 13.0959 11.3443 12.9445C10.85 12.8312 10.3315 12.6779 9.87783 12.4722C9.71172 12.3969 9.5283 12.3665 9.34707 12.387C9.12194 12.4125 8.89216 12.4251 8.65948 12.4251C7.57968 12.4251 6.56228 12.1538 5.78151 11.5834M9.69417 5.02507C9.69417 7.82968 7.65539 9.09176 5.32624 9.09176C5.09356 9.09176 4.86378 9.07916 4.63865 9.05369C4.45742 9.03319 4.274 9.06357 4.10789 9.13888C3.65418 9.34455 3.13572 9.49784 2.64145 9.61115C1.98112 9.76252 1.37361 9.10908 1.69515 8.51279C1.8295 8.26364 1.86492 7.73278 1.69681 7.50504C1.23335 6.87722 0.958308 6.05519 0.958308 5.02507C0.958308 2.22045 2.99708 0.958374 5.32624 0.958374C7.65539 0.958374 9.69417 2.22045 9.69417 5.02507Z" stroke="#ADA9BB" stroke-width="1.5" stroke-linecap="round" stroke-linejoin="round"/>
</svg>
