<svg width="21" height="22" viewBox="0 0 21 22" fill="none" xmlns="http://www.w3.org/2000/svg">
<path d="M1.7 9C1.7 5.229 1.7 3.343 2.872 2.172C4.044 1.001 5.929 1 9.7 1H11.7C15.471 1 17.357 1 18.528 2.172C19.699 3.344 19.7 5.229 19.7 9V13C19.7 16.771 19.7 18.657 18.528 19.828C17.356 20.999 15.471 21 11.7 21H9.7C5.929 21 4.043 21 2.872 19.828C1.701 18.656 1.7 16.771 1.7 13V9Z" stroke="#484554" stroke-width="1.5"/>
<path d="M6.7 9H14.7M6.7 13H11.7" stroke="#484554" stroke-width="1.5" stroke-linecap="round"/>
</svg>
