<svg width="14" height="14" viewBox="0 0 14 14" fill="none" xmlns="http://www.w3.org/2000/svg">
<path d="M1.68431 9.46896L2.60164 9.6126C3.27882 9.71866 3.76242 10.3389 3.71255 11.0376L3.64497 11.9847C3.62528 12.2606 3.77226 12.5204 4.01571 12.6405L4.69419 12.9748C4.93764 13.095 5.22832 13.05 5.42714 12.8627L6.10891 12.2183C6.61154 11.7431 7.38714 11.7431 7.89043 12.2183L8.5722 12.8627C8.77102 13.0507 9.06105 13.095 9.30515 12.9748L9.98495 12.6399C10.2277 12.5204 10.3741 12.2613 10.3544 11.9861L10.2868 11.0376C10.2369 10.3389 10.7205 9.71866 11.3977 9.6126L12.315 9.46896C12.5821 9.42734 12.7973 9.22262 12.8577 8.95278L13.025 8.20234C13.0854 7.9325 12.9784 7.6526 12.7553 7.49687L11.9896 6.96056C11.4246 6.56453 11.252 5.79127 11.5932 5.1838L12.0558 4.36086C12.1904 4.12123 12.1681 3.82119 11.9994 3.60505L11.5302 3.00296C11.3616 2.78682 11.0808 2.69754 10.8222 2.77876L9.93508 3.05666C9.27956 3.26205 8.58073 2.91771 8.32876 2.26594L7.98886 1.38461C7.88912 1.12686 7.64568 0.957705 7.37468 0.958376L6.6227 0.96039C6.3517 0.961061 6.10891 1.13155 6.01048 1.38998L5.67912 2.26124C5.42977 2.91704 4.72766 3.26407 4.07017 3.05733L3.14627 2.76735C2.88708 2.68546 2.60493 2.77541 2.43629 2.99289L1.9704 3.59566C1.80176 3.81381 1.78142 4.11452 1.91856 4.35415L2.39167 5.1791C2.7401 5.78724 2.56949 6.56788 2.00124 6.96593L1.24467 7.4962C1.02157 7.6526 0.914613 7.9325 0.974982 8.20167L1.14231 8.95211C1.20202 9.22262 1.41724 9.42734 1.68431 9.46896Z" stroke="#ADA9BB" stroke-width="1.5" stroke-linecap="round" stroke-linejoin="round"/>
<path d="M8.32589 5.67415C9.05804 6.4063 9.05804 7.59379 8.32589 8.32593C7.59374 9.05808 6.40626 9.05808 5.67411 8.32593C4.94196 7.59379 4.94196 6.4063 5.67411 5.67415C6.40626 4.942 7.59374 4.942 8.32589 5.67415Z" stroke="#ADA9BB" stroke-width="1.5" stroke-linecap="round" stroke-linejoin="round"/>
</svg>
