<svg width="18" height="19" viewBox="0 0 18 19" fill="none" xmlns="http://www.w3.org/2000/svg">
<path d="M7.33333 8.33329C9.17428 8.33329 10.6667 6.84091 10.6667 4.99996C10.6667 3.15901 9.17428 1.66663 7.33333 1.66663C5.49238 1.66663 4 3.15901 4 4.99996C4 6.84091 5.49238 8.33329 7.33333 8.33329Z" stroke="#ADA9BB" stroke-width="1.5"/>
<path d="M7.33333 17.4999C10.555 17.4999 13.1667 16.0075 13.1667 14.1666C13.1667 12.3256 10.555 10.8333 7.33333 10.8333C4.11167 10.8333 1.5 12.3256 1.5 14.1666C1.5 16.0075 4.11167 17.4999 7.33333 17.4999Z" stroke="#ADA9BB" stroke-width="1.5"/>
<path d="M14.8333 1.66663C14.8333 1.66663 16.5 2.66663 16.5 4.99996C16.5 7.33329 14.8333 8.33329 14.8333 8.33329M13.1667 3.33329C13.1667 3.33329 14 3.83329 14 4.99996C14 6.16663 13.1667 6.66663 13.1667 6.66663" stroke="#ADA9BB" stroke-width="1.5" stroke-linecap="round"/>
</svg>
