<svg width="23" height="22" viewBox="0 0 23 22" fill="none" xmlns="http://www.w3.org/2000/svg">
<path d="M1.29993 11C1.29993 7.229 1.29993 5.343 2.47193 4.172C3.64393 3.001 5.52893 3 9.29993 3H13.2999C17.0709 3 18.9569 3 20.1279 4.172C21.2989 5.344 21.2999 7.229 21.2999 11V13C21.2999 16.771 21.2999 18.657 20.1279 19.828C18.9559 20.999 17.0709 21 13.2999 21H9.29993C5.52893 21 3.64293 21 2.47193 19.828C1.30093 18.656 1.29993 16.771 1.29993 13V11Z" stroke="#FCF7FF" stroke-width="1.5"/>
<path d="M6.29993 3V1.5M16.2999 3V1.5M1.79993 8H20.7999" stroke="#FCF7FF" stroke-width="1.5" stroke-linecap="round"/>
<path d="M16.7999 16C16.7999 16.1326 16.7472 16.2598 16.6535 16.3536C16.5597 16.4473 16.4325 16.5 16.2999 16.5C16.1673 16.5 16.0401 16.4473 15.9464 16.3536C15.8526 16.2598 15.7999 16.1326 15.7999 16C15.7999 15.8674 15.8526 15.7402 15.9464 15.6464C16.0401 15.5527 16.1673 15.5 16.2999 15.5C16.4325 15.5 16.5597 15.5527 16.6535 15.6464C16.7472 15.7402 16.7999 15.8674 16.7999 16ZM16.7999 12C16.7999 12.1326 16.7472 12.2598 16.6535 12.3536C16.5597 12.4473 16.4325 12.5 16.2999 12.5C16.1673 12.5 16.0401 12.4473 15.9464 12.3536C15.8526 12.2598 15.7999 12.1326 15.7999 12C15.7999 11.8674 15.8526 11.7402 15.9464 11.6464C16.0401 11.5527 16.1673 11.5 16.2999 11.5C16.4325 11.5 16.5597 11.5527 16.6535 11.6464C16.7472 11.7402 16.7999 11.8674 16.7999 12ZM11.7999 16C11.7999 16.1326 11.7472 16.2598 11.6535 16.3536C11.5597 16.4473 11.4325 16.5 11.2999 16.5C11.1673 16.5 11.0401 16.4473 10.9464 16.3536C10.8526 16.2598 10.7999 16.1326 10.7999 16C10.7999 15.8674 10.8526 15.7402 10.9464 15.6464C11.0401 15.5527 11.1673 15.5 11.2999 15.5C11.4325 15.5 11.5597 15.5527 11.6535 15.6464C11.7472 15.7402 11.7999 15.8674 11.7999 16ZM11.7999 12C11.7999 12.1326 11.7472 12.2598 11.6535 12.3536C11.5597 12.4473 11.4325 12.5 11.2999 12.5C11.1673 12.5 11.0401 12.4473 10.9464 12.3536C10.8526 12.2598 10.7999 12.1326 10.7999 12C10.7999 11.8674 10.8526 11.7402 10.9464 11.6464C11.0401 11.5527 11.1673 11.5 11.2999 11.5C11.4325 11.5 11.5597 11.5527 11.6535 11.6464C11.7472 11.7402 11.7999 11.8674 11.7999 12ZM6.79993 16C6.79993 16.1326 6.74725 16.2598 6.65348 16.3536C6.55971 16.4473 6.43254 16.5 6.29993 16.5C6.16732 16.5 6.04014 16.4473 5.94637 16.3536C5.85261 16.2598 5.79993 16.1326 5.79993 16C5.79993 15.8674 5.85261 15.7402 5.94637 15.6464C6.04014 15.5527 6.16732 15.5 6.29993 15.5C6.43254 15.5 6.55971 15.5527 6.65348 15.6464C6.74725 15.7402 6.79993 15.8674 6.79993 16ZM6.79993 12C6.79993 12.1326 6.74725 12.2598 6.65348 12.3536C6.55971 12.4473 6.43253 12.5 6.29993 12.5C6.16732 12.5 6.04014 12.4473 5.94637 12.3536C5.85261 12.2598 5.79993 12.1326 5.79993 12C5.79993 11.8674 5.85261 11.7402 5.94637 11.6464C6.04014 11.5527 6.16732 11.5 6.29993 11.5C6.43253 11.5 6.55971 11.5527 6.65348 11.6464C6.74725 11.7402 6.79993 11.8674 6.79993 12Z" fill="#FCF7FF" stroke="#FCF7FF"/>
</svg>
