<svg width="2" height="12" viewBox="0 0 2 12" fill="none" xmlns="http://www.w3.org/2000/svg">
<path d="M1.41658 1.83341C1.41658 2.06353 1.23004 2.25008 0.999918 2.25008C0.7698 2.25008 0.583252 2.06353 0.583252 1.83341C0.583252 1.6033 0.7698 1.41675 0.999918 1.41675C1.23004 1.41675 1.41658 1.6033 1.41658 1.83341Z" stroke="#FCF7FF"/>
<path d="M1.41658 6.00008C1.41658 6.2302 1.23004 6.41675 0.999918 6.41675C0.7698 6.41675 0.583252 6.2302 0.583252 6.00008C0.583252 5.76996 0.7698 5.58341 0.999918 5.58341C1.23004 5.58341 1.41658 5.76996 1.41658 6.00008Z" stroke="#FCF7FF"/>
<path d="M1.41658 10.1667C1.41658 10.3969 1.23004 10.5834 0.999918 10.5834C0.7698 10.5834 0.583252 10.3969 0.583252 10.1667C0.583252 9.93663 0.7698 9.75008 0.999918 9.75008C1.23004 9.75008 1.41658 9.93663 1.41658 10.1667Z" stroke="#FCF7FF"/>
</svg>
