<svg width="17" height="16" viewBox="0 0 17 16" fill="none" xmlns="http://www.w3.org/2000/svg">
<path d="M4.09753 13C5.244 11.625 6.96986 10.75 8.90008 10.75C10.8303 10.75 12.5562 11.625 13.7026 13M16.15 8C16.15 12.0041 12.9041 15.25 8.90002 15.25C4.89596 15.25 1.65002 12.0041 1.65002 8C1.65002 3.99594 4.89596 0.75 8.90002 0.75C12.9041 0.75 16.15 3.99594 16.15 8ZM11.15 6C11.15 7.24264 10.1427 8.25 8.90002 8.25C7.65738 8.25 6.65002 7.24264 6.65002 6C6.65002 4.75736 7.65738 3.75 8.90002 3.75C10.1427 3.75 11.15 4.75736 11.15 6Z" stroke="#FCF7FF" stroke-width="1.5" stroke-linecap="round" stroke-linejoin="round"/>
</svg>
