<svg width="21" height="22" viewBox="0 0 21 22" fill="none" xmlns="http://www.w3.org/2000/svg">
<path d="M1.69995 9C1.69995 5.229 1.69995 3.343 2.87195 2.172C4.04395 1.001 5.92895 1 9.69995 1H11.7C15.471 1 17.357 1 18.528 2.172C19.699 3.344 19.7 5.229 19.7 9V13C19.7 16.771 19.7 18.657 18.528 19.828C17.356 20.999 15.471 21 11.7 21H9.69995C5.92895 21 4.04295 21 2.87195 19.828C1.70095 18.656 1.69995 16.771 1.69995 13V9Z" stroke="#FCF7FF" stroke-width="1.5"/>
<path d="M6.69995 9H14.7M6.69995 13H11.7" stroke="#FCF7FF" stroke-width="1.5" stroke-linecap="round"/>
</svg>
