<svg width="21" height="21" viewBox="0 0 21 21" fill="none" xmlns="http://www.w3.org/2000/svg">
<path d="M8.5 9C10.7091 9 12.5 7.20914 12.5 5C12.5 2.79086 10.7091 1 8.5 1C6.29086 1 4.5 2.79086 4.5 5C4.5 7.20914 6.29086 9 8.5 9Z" stroke="#FCF7FF" stroke-width="1.5"/>
<path d="M8.5 20C12.366 20 15.5 18.2091 15.5 16C15.5 13.7909 12.366 12 8.5 12C4.63401 12 1.5 13.7909 1.5 16C1.5 18.2091 4.63401 20 8.5 20Z" stroke="#FCF7FF" stroke-width="1.5"/>
<path d="M17.5 1C17.5 1 19.5 2.2 19.5 5C19.5 7.8 17.5 9 17.5 9M15.5 3C15.5 3 16.5 3.6 16.5 5C16.5 6.4 15.5 7 15.5 7" stroke="#FCF7FF" stroke-width="1.5" stroke-linecap="round"/>
</svg>
